<svg xmlns="http://www.w3.org/2000/svg" height="20" width="17.829"><g fill="#c00"><path d="M13.175 8.38c-.27-.39-.72-.24-.99-.18-.06.03-.12.03-.18.06 0-.06.03-.12.06-.18.09-.3.24-.72-.15-.99-.36-.24-.72.03-.96.21-.03.03-.09.06-.12.09v-.15c0-.27-.03-.75-.48-.87-.42-.09-.66.3-.84.54-.03.03-.06.09-.09.12-.03-.06-.03-.09-.06-.15-.12-.27-.27-.69-.75-.66-.45.06-.54.51-.6.78 0 .03-.03.09-.03.15-.03-.03-.06-.09-.09-.12-.21-.24-.51-.57-.93-.39-.39.21-.33.66-.3.96 0 .06.03.12.03.18-.06-.03-.09-.06-.15-.06-.24-.12-.69-.36-1.02-.03-.3.33-.09.72.06.99.03.06.06.15.09.21h-.21c-.3-.03-.78-.06-.96.39-.06.15 0 .33.15.39s.33 0 .39-.15c.03-.06.24-.03.36-.03.27.03.6.03.78-.24.18-.27.03-.6-.09-.84-.03-.09-.12-.24-.12-.3.06 0 .21.09.3.12.24.12.54.27.81.09.27-.18.24-.54.18-.81 0-.09-.03-.24-.03-.3l.21.21c.18.21.42.45.72.36.33-.09.39-.42.45-.69.03-.09.06-.21.06-.27.03.06.09.18.12.27.09.27.24.57.54.6.33.03.51-.27.66-.48.03-.06.12-.18.15-.24.03.09.03.21.03.3 0 .27.03.63.33.75.3.15.57-.06.78-.24.06-.06.18-.15.24-.18 0 .09-.06.21-.09.3-.09.27-.18.6.03.81.24.24.57.15.81.09.09-.03.3-.09.33-.09 0 .06-.12.21-.18.3-.15.21-.39.51-.24.81.06.12.15.18.27.18.03 0 .09 0 .12-.03.15-.06.21-.21.15-.36.03-.06.09-.18.15-.24.27-.24.54-.6.3-.99z"/><path d="M16.385 13.27a.856.856 0 00-1.02.09l-.84-.48c.3-.6.51-1.23.63-1.92l1.2.12.06-.6-1.2-.12c0-.12.03-.24.03-.36s0-.24-.03-.36l1.2-.12-.06-.6-1.2.12c-.09-.69-.33-1.32-.63-1.92l.84-.48c.27.24.69.3 1.02.09.42-.24.57-.81.33-1.23a.919.919 0 00-1.23-.33c-.33.21-.51.57-.42.93l-.84.48c-.36-.57-.84-1.08-1.35-1.5l.72-.99-.48-.36-.72.99-.63-.36.48-1.11-.54-.24-.48 1.11c-.63-.24-1.29-.39-1.98-.42v-.96c.36-.12.6-.45.6-.84 0-.51-.39-.9-.9-.9s-.9.39-.9.9c0 .39.24.72.6.84v.96c-.69.03-1.35.18-1.98.42l-.48-1.11-.54.24.48 1.11-.63.36-.72-.99-.48.36.72.99c-.54.42-.99.93-1.35 1.5l-.87-.48c.06-.36-.09-.75-.42-.93-.45-.24-1.02-.09-1.26.33-.24.42-.09.99.33 1.23.33.21.75.15 1.02-.09l.84.48c-.3.6-.51 1.23-.63 1.92l-1.2-.12-.06.6 1.2.12c0 .12-.03.24-.03.36s0 .24.03.36l-1.2.12.06.6 1.2-.12c.09.69.33 1.32.63 1.92l-.84.48a.856.856 0 00-1.02-.09c-.42.24-.57.81-.33 1.23.24.42.81.57 1.23.33.33-.21.51-.57.42-.93l.84-.48c.36.57.84 1.08 1.35 1.5l-.72.99.48.36.72-.99.63.36-.48 1.11.54.24.48-1.11c.63.24 1.29.39 1.98.42v.96c-.36.12-.6.45-.6.84 0 .51.39.9.9.9s.9-.39.9-.9c0-.39-.24-.72-.6-.84v-.96c.69-.03 1.35-.18 1.98-.42l.48 1.11.54-.24-.48-1.11.63-.36.72.99.48-.36-.72-.99c.54-.42.99-.93 1.35-1.5l.84.48c-.06.36.09.75.42.93.42.24.99.09 1.23-.33.24-.42.15-.99-.27-1.23zm-3.87 1.17l-.36-.48-.48.36.36.48c-.18.12-.33.21-.51.3l-.24-.54-.57.21.24.54c-.54.21-1.14.33-1.74.36v-.57h-.6v.57c-.6-.03-1.2-.15-1.74-.36l.24-.54-.54-.24-.24.54c-.18-.09-.36-.18-.51-.3l.36-.48-.48-.36-.39.51c-.45-.39-.87-.81-1.2-1.32l.51-.3-.3-.51-.51.3c-.27-.51-.45-1.08-.54-1.68l.57-.06-.06-.6-.54.03c0-.09-.03-.21-.03-.3s0-.21.03-.3l.57.06.06-.6-.57-.06c.09-.6.27-1.17.54-1.68l.51.3.3-.51-.51-.3c.33-.51.72-.96 1.2-1.32l.36.48.48-.36-.36-.48c.18-.12.33-.21.51-.3l.24.54.54-.24-.24-.54a5.62 5.62 0 011.74-.36v.57h.6v-.57c.6.03 1.2.15 1.74.36l-.24.54.54.24.24-.54c.18.09.36.18.51.3l-.36.48.48.36.36-.48c.45.39.87.81 1.2 1.32l-.51.3.3.51.51-.3c.27.51.45 1.08.54 1.68l-.57.06.06.6.57-.06c0 .09.03.21.03.3s0 .21-.03.3l-.57-.06-.06.6.57.06c-.09.6-.27 1.17-.54 1.68l-.51-.3-.3.51.51.3c-.33.51-.72.96-1.17 1.35z"/></g></svg>